<?xml version="1.0" standalone="no"?>
<!DOCTYPE svg PUBLIC "-//W3C//DTD SVG 20010904//EN"
 "http://www.w3.org/TR/2001/REC-SVG-20010904/DTD/svg10.dtd">
<svg version="1.0" xmlns="http://www.w3.org/2000/svg"
 width="1024.000000pt" height="1024.000000pt" viewBox="0 0 1024.000000 1024.000000"
 preserveAspectRatio="xMidYMid meet">
<metadata>
Created by potrace 1.11, written by Peter Selinger 2001-2013
</metadata>
<g transform="translate(0.000000,1024.000000) scale(0.100000,-0.100000)"
fill="#000000" stroke="none">
<path d="M2153 5488 c1 -816 5 -1492 9 -1503 3 -11 9 -40 13 -65 9 -58 50
-182 79 -240 115 -231 329 -369 631 -407 76 -10 320 -10 402 -1 82 10 204 44
280 78 262 119 414 365 440 715 4 44 7 715 7 1490 l1 1410 -233 3 -232 2 -1
-1472 c0 -810 -3 -1486 -5 -1503 -38 -247 -203 -386 -461 -387 -129 0 -220 27
-304 91 -81 63 -138 162 -154 271 -3 25 -8 54 -10 65 -2 11 -4 676 -4 1478
l-1 1457 -230 0 -231 0 4 -1482z"/>
<path d="M4562 5133 l3 -1837 208 0 207 -1 0 1838 0 1837 -210 0 -210 0 2
-1837z"/>
<path d="M5610 5136 c0 -1458 3 -1835 13 -1838 6 -2 100 -3 207 -3 l195 1 3
1837 2 1837 -210 0 -210 0 0 -1834z"/>
<path d="M7163 4805 c-24 -7 -43 -11 -43 -9 0 9 -139 -49 -198 -82 -79 -44
-207 -168 -260 -252 -132 -207 -157 -474 -66 -702 39 -99 88 -173 167 -254
108 -109 205 -166 355 -208 80 -22 246 -30 327 -16 247 44 464 209 571 435
114 241 91 546 -58 760 -104 150 -271 272 -428 313 -25 7 -54 14 -65 17 -44
12 -261 10 -302 -2z"/>
</g>
</svg>
